<svg version="1.0" xmlns="http://www.w3.org/2000/svg" width="300" height="300" viewBox="0 0 300 300">
  <g transform="translate(0.000000,300.000000) scale(0.100000,-0.100000)" fill="#663399" stroke="none">
    <title stroke="null">Gatsby Logo</title>
    <path d="M1346 2990 c-356 -41 -650 -183 -902 -434 -224 -225 -355 -470 -415 -779 -29 -145 -31 -384 -5 -532 54 -309 193 -573 420 -801 294 -293 641 -437 1056 -437 415 0 762 144 1056 437 224 225 355 470 416 779 31 158 31 396 0 554 -61 309 -192 554 -416 779 -225 224 -484 361 -792 418 -105 19 -316 27 -418 16z m309 -321 c271 -37 474 -140 677 -341 65 -64 118 -121 118 -127 0 -10 -37 -47 -123 -121 l-37 -32 -22 28 c-37 49 -171 179 -220 212 -289 198 -662 225 -971 71 -113 -56 -161 -92 -257 -188 -87 -87 -159 -192 -201 -289 l-22 -54 616 -616 616 -616 53 24 c171 78 340 224 430 370 44 71 98 193 112 253 l6 27 -255 0 -255 0 0 115 0 115 380 0 380 0 0 -42 c0 -62 -17 -171 -40 -260 -98 -381 -421 -716 -799 -828 l-74 -22 -709 709 -710 710 18 59 c94 329 354 623 672 760 186 80 416 111 617 83z m-753 -1766 c318 -317 575 -579 572 -582 -2 -2 -48 1 -102 7 -278 33 -493 136 -693 332 -197 194 -310 415 -349 685 -9 66 -13 135 -7 135 1 0 262 -260 579 -577z"/>
  </g>
</svg>
